nColumns=19
nRows=111
DataType=double
version=3
OpenSimVersion=4.1
endheader
time	ground_force_calcn_r_vx	ground_force_calcn_r_vy	ground_force_calcn_r_vz	ground_force_calcn_r_px	ground_force_calcn_r_py	ground_force_calcn_r_pz	ground_force_calcn_r_mx	ground_force_calcn_r_my	ground_force_calcn_r_mz	ground_force_calcn_l_vx	ground_force_calcn_l_vy	ground_force_calcn_l_vz	ground_force_calcn_l_px	ground_force_calcn_l_py	ground_force_calcn_l_pz	ground_force_calcn_l_mx	ground_force_calcn_l_my	ground_force_calcn_l_mz
0	0	0	0	0	0	0	0	0	0	-71.148	50.9283	-54.4327	0.943731	0	-0.243164	14.1596	-10.1356	10.833
0.005	0	0	0	0	0	0	0	0	0	-89.9513	230.501	-13.2478	1.0489	0	-0.452782	3.22498	-8.26405	0.474966
0.01	0	0	0	0	0	0	0	0	0	-136.793	525.015	37.9975	1.02048	0	-0.449103	-2.33476	8.96082	0.648532
0.015	0	0	0	0	0	0	0	0	0	-197.869	920.136	108.037	0.999971	0	-0.432214	-4.2714	19.8629	2.33218
0.02	0	0	0	0	0	0	0	0	0	-241.288	1367.81	197.444	0.983443	0	-0.415763	-3.94047	22.3376	3.22446
0.025	0	0	0	0	0	0	0	0	0	-252.529	1839.8	282.426	0.968913	0	-0.40119	-1.36461	9.9419	1.52617
0.03	0	0	0	0	0	0	0	0	0	-263.49	2319.1	330.584	0.952147	0	-0.38791	2.24283	-19.7402	-2.81393
0.035	0	0	0	0	0	0	0	0	0	-294.45	2753.33	306.291	0.937187	0	-0.376781	5.52906	-51.7009	-5.75142
0.04	0	0	0	0	0	0	0	0	0	-332.307	3076.02	192.606	0.929044	0	-0.368787	7.34187	-67.9604	-4.25538
0.045	0	0	0	0	0	0	0	0	0	-372.336	3262.07	11.6734	0.922564	0	-0.364481	7.10308	-62.2307	-0.222694
0.05	0	0	0	0	0	0	0	0	0	-395.13	3324.61	-175.423	0.910713	0	-0.363652	4.18666	-35.2264	1.85872
0.055	0	0	0	0	0	0	0	0	0	-367.148	3297.2	-302.382	0.889716	0	-0.365127	-0.188392	1.69186	-0.155159
0.06	0	0	0	0	0	0	0	0	0	-279.353	3217.47	-329.308	0.856956	0	-0.366647	-2.62126	30.1905	-3.09
0.065	0	0	0	0	0	0	0	0	0	-149.111	3112.14	-262.283	0.815685	0	-0.366505	-1.72922	36.0911	-3.04166
0.07	0	0	0	0	0	0	0	0	0	-7.07124	2993.14	-150.671	0.775254	0	-0.364912	-0.044905	19.0075	-0.956815
0.075	0	0	0	0	0	0	0	0	0	122.303	2851.77	-52.1287	0.740836	0	-0.363463	-0.34427	-8.02741	0.146736
0.08	0	0	0	0	0	0	0	0	0	233.956	2672.28	2.2861	0.711732	0	-0.362963	-2.53432	-28.9474	-0.0247641
0.085	0	0	0	0	0	0	0	0	0	337.649	2446.51	18.8453	0.684992	0	-0.362976	-4.78385	-34.6624	-0.267002
0.09	0	0	0	0	0	0	0	0	0	433.603	2167.06	22.2616	0.653634	0	-0.363131	-5.82701	-29.1222	-0.299165
0.095	0	0	0	0	0	0	0	0	0	509.503	1819.76	29.4957	0.606402	0	-0.36506	-6.75048	-24.1103	-0.390793
0.1	0	0	0	0	0	0	0	0	0	554.489	1407.92	41.9567	0.530027	0	-0.372819	-10.6053	-26.9284	-0.802478
0.105	0	0	0	0	0	0	0	0	0	554.372	974.24	47.7762	0.406606	0	-0.392895	-18.4733	-32.4646	-1.59204
0.11	0	0	0	0	0	0	0	0	0	502.188	578.428	27.6866	0.207103	0	-0.42419	-19.2232	-22.1416	-1.05981
0.115	0	0	0	0	0	0	0	0	0	409.281	272.06	-26.361	-0.0928968	0	-0.388049	9.57675	6.36593	-0.616821
0.12	0	0	0	0	0	0	0	0	0	297.619	76.9335	-99.4844	0.35082	0	0.0613243	34.7223	8.97558	-11.6065
0.125	0	0	0	0	0	0	0	0	0	0	0	0	0	0	0	0	0	0
0.13	0	0	0	0	0	0	0	0	0	0	0	0	0	0	0	0	0	0
0.135	0	0	0	0	0	0	0	0	0	0	0	0	0	0	0	0	0	0
0.14	0	0	0	0	0	0	0	0	0	0	0	0	0	0	0	0	0	0
0.145	0	0	0	0	0	0	0	0	0	0	0	0	0	0	0	0	0	0
0.15	0	0	0	0	0	0	0	0	0	0	0	0	0	0	0	0	0	0
0.155	0	0	0	0	0	0	0	0	0	0	0	0	0	0	0	0	0	0
0.16	0	0	0	0	0	0	0	0	0	0	0	0	0	0	0	0	0	0
0.165	0	0	0	0	0	0	0	0	0	0	0	0	0	0	0	0	0	0
0.17	0	0	0	0	0	0	0	0	0	0	0	0	0	0	0	0	0	0
0.175	0	0	0	0	0	0	0	0	0	0	0	0	0	0	0	0	0	0
0.18	0	0	0	0	0	0	0	0	0	0	0	0	0	0	0	0	0	0
0.185	0	0	0	0	0	0	0	0	0	0	0	0	0	0	0	0	0	0
0.19	0	0	0	0	0	0	0	0	0	0	0	0	0	0	0	0	0	0
0.195	0	0	0	0	0	0	0	0	0	0	0	0	0	0	0	0	0	0
0.2	0	0	0	0	0	0	0	0	0	0	0	0	0	0	0	0	0	0
0.205	0	0	0	0	0	0	0	0	0	0	0	0	0	0	0	0	0	0
0.21	0	0	0	0	0	0	0	0	0	0	0	0	0	0	0	0	0	0
0.215	0	0	0	0	0	0	0	0	0	0	0	0	0	0	0	0	0	0
0.22	0	0	0	0	0	0	0	0	0	0	0	0	0	0	0	0	0	0
0.225	0	0	0	0	0	0	0	0	0	0	0	0	0	0	0	0	0	0
0.23	0	0	0	0	0	0	0	0	0	0	0	0	0	0	0	0	0	0
0.235	0	0	0	0	0	0	0	0	0	0	0	0	0	0	0	0	0	0
0.24	0	0	0	0	0	0	0	0	0	0	0	0	0	0	0	0	0	0
0.245	0	0	0	0	0	0	0	0	0	0	0	0	0	0	0	0	0	0
0.25	-94.8678	105.364	10.581	1.18254	0	-0.293412	-0.592775	0.658358	0.0661146	0	0	0	0	0	0	0	0	0
0.255	-169.314	318.221	-25.4855	1.0411	0	-0.278215	1.18042	-2.21855	0.177679	0	0	0	0	0	0	0	0	0
0.26	-261.937	639.841	-89.9029	1.00917	0	-0.29124	1.25201	-3.05833	0.42972	0	0	0	0	0	0	0	0	0
0.265	-346.652	1042.31	-179.06	0.989358	0	-0.300337	1.12057	-3.36933	0.578822	0	0	0	0	0	0	0	0	0
0.27	-387.533	1497.48	-271.083	0.973664	0	-0.308728	-0.0392235	0.151564	-0.0274372	0	0	0	0	0	0	0	0	0
0.275	-384.597	1995.3	-327.953	0.958134	0	-0.315701	-3.1065	16.1166	-2.64897	0	0	0	0	0	0	0	0	0
0.28	-374.73	2501.09	-314.22	0.943144	0	-0.319532	-5.9722	39.8607	-5.00784	0	0	0	0	0	0	0	0	0
0.285	-386.731	2942.3	-217.286	0.932296	0	-0.320674	-7.15612	54.4446	-4.02069	0	0	0	0	0	0	0	0	0
0.29	-421.57	3254.61	-48.6741	0.924155	0	-0.320463	-6.72993	51.9565	-0.77703	0	0	0	0	0	0	0	0	0
0.295	-453.058	3421.22	163.102	0.91395	0	-0.319574	-4.74609	35.8396	1.7086	0	0	0	0	0	0	0	0	0
0.3	-448.011	3456.41	370.183	0.897129	0	-0.318652	-1.68411	12.9929	1.39155	0	0	0	0	0	0	0	0	0
0.305	-389.641	3383.49	516.844	0.870454	0	-0.318459	1.42394	-12.3649	-1.8888	0	0	0	0	0	0	0	0	0
0.31	-277.389	3239.91	564.929	0.834238	0	-0.319695	3.03114	-35.4039	-6.17322	0	0	0	0	0	0	0	0	0
0.315	-125.826	3074.12	517.843	0.793567	0	-0.322487	1.78142	-43.523	-7.33155	0	0	0	0	0	0	0	0	0
0.32	39.5584	2905.64	419.085	0.756086	0	-0.325054	-0.388297	-28.5212	-4.11365	0	0	0	0	0	0	0	0	0
0.325	192.171	2710.83	312.293	0.725029	0	-0.325757	0.00413173	0.0582836	0.00671437	0	0	0	0	0	0	0	0	0
0.33	319.485	2462.04	216.863	0.696972	0	-0.324454	3.53636	27.2521	2.40044	0	0	0	0	0	0	0	0	0
0.335	427.013	2154.67	133.53	0.666179	0	-0.321652	9.25533	46.7016	2.89421	0	0	0	0	0	0	0	0	0
0.34	517.535	1794.9	64.8146	0.623565	0	-0.317222	16.5523	57.4063	2.07296	0	0	0	0	0	0	0	0	0
0.345	578.062	1389.24	14.9842	0.552829	0	-0.310342	25.625	61.5838	0.664236	0	0	0	0	0	0	0	0	0
0.35	592.661	960.71	-9.08998	0.423415	0	-0.298136	35.8811	58.1637	-0.550329	0	0	0	0	0	0	0	0	0
0.355	555.25	564.047	-2.20167	0.169962	0	-0.281528	38.8958	39.512	-0.154229	0	0	0	0	0	0	0	0	0
0.36	472.336	259.474	32.8715	-0.372229	0	-0.328571	13.6715	7.51035	0.95145	0	0	0	0	0	0	0	0	0
0.365	356.065	68.4846	80.5946	0.265105	0	-0.725006	-27.4432	-5.27835	-6.2117	0	0	0	0	0	0	0	0	0
0.37	0	0	0	0	0	0	0	0	0	0	0	0	0	0	0	0	0	0
0.375	0	0	0	0	0	0	0	0	0	0	0	0	0	0	0	0	0	0
0.38	0	0	0	0	0	0	0	0	0	0	0	0	0	0	0	0	0	0
0.385	0	0	0	0	0	0	0	0	0	0	0	0	0	0	0	0	0	0
0.39	0	0	0	0	0	0	0	0	0	0	0	0	0	0	0	0	0	0
0.395	0	0	0	0	0	0	0	0	0	0	0	0	0	0	0	0	0	0
0.4	0	0	0	0	0	0	0	0	0	0	0	0	0	0	0	0	0	0
0.405	0	0	0	0	0	0	0	0	0	0	0	0	0	0	0	0	0	0
0.41	0	0	0	0	0	0	0	0	0	0	0	0	0	0	0	0	0	0
0.415	0	0	0	0	0	0	0	0	0	0	0	0	0	0	0	0	0	0
0.42	0	0	0	0	0	0	0	0	0	0	0	0	0	0	0	0	0	0
0.425	0	0	0	0	0	0	0	0	0	0	0	0	0	0	0	0	0	0
0.43	0	0	0	0	0	0	0	0	0	0	0	0	0	0	0	0	0	0
0.435	0	0	0	0	0	0	0	0	0	0	0	0	0	0	0	0	0	0
0.44	0	0	0	0	0	0	0	0	0	0	0	0	0	0	0	0	0	0
0.445	0	0	0	0	0	0	0	0	0	0	0	0	0	0	0	0	0	0
0.45	0	0	0	0	0	0	0	0	0	0	0	0	0	0	0	0	0	0
0.455	0	0	0	0	0	0	0	0	0	0	0	0	0	0	0	0	0	0
0.46	0	0	0	0	0	0	0	0	0	0	0	0	0	0	0	0	0	0
0.465	0	0	0	0	0	0	0	0	0	0	0	0	0	0	0	0	0	0
0.47	0	0	0	0	0	0	0	0	0	0	0	0	0	0	0	0	0	0
0.475	0	0	0	0	0	0	0	0	0	0	0	0	0	0	0	0	0	0
0.48	0	0	0	0	0	0	0	0	0	0	0	0	0	0	0	0	0	0
0.485	0	0	0	0	0	0	0	0	0	-94.2272	103.215	-21.4729	1.22855	0	-0.259948	15.5524	-17.0358	3.54414
0.49	0	0	0	0	0	0	0	0	0	-161.422	312.329	-19.3769	1.11269	0	-0.434524	8.69122	-16.8163	1.04328
0.495	0	0	0	0	0	0	0	0	0	-241.125	628.445	16.1286	1.07457	0	-0.4266	3.03225	-7.90297	-0.202824
0.5	0	0	0	0	0	0	0	0	0	-315.737	1020.87	86.7606	1.05239	0	-0.414607	-2.04025	6.59676	0.560636
0.505	0	0	0	0	0	0	0	0	0	-351.511	1449.76	170.716	1.03544	0	-0.401645	-4.59419	18.9482	2.23123
0.51	0	0	0	0	0	0	0	0	0	-339.336	1903.87	235.48	1.01737	0	-0.388321	-2.48324	13.9324	1.72322
0.515	0	0	0	0	0	0	0	0	0	-319.578	2359.3	257.462	0.994491	0	-0.375583	1.64449	-12.1405	-1.32485
0.52	0	0	0	0	0	0	0	0	0	-324.867	2743.29	212.997	0.975384	0	-0.365587	5.05926	-42.7221	-3.31706
0.525	0	0	0	0	0	0	0	0	0	-364.061	2985.41	102.822	0.966686	0	-0.35865	7.20847	-59.1115	-2.0359
0.53	0	0	0	0	0	0	0	0	0	-433.332	3079.87	-46.5805	0.963329	0	-0.355446	7.33856	-52.1582	0.788849
0.535	0	0	0	0	0	0	0	0	0	-490.328	3075.64	-184.664	0.957629	0	-0.355326	4.27583	-26.8206	1.61033
0.54	0	0	0	0	0	0	0	0	0	-480.68	3032.58	-269.901	0.943358	0	-0.356571	0.195501	-1.23341	0.109774
0.545	0	0	0	0	0	0	0	0	0	-387.39	2975.7	-282.96	0.914335	0	-0.357058	-1.89018	14.5192	-1.38064
0.55	0	0	0	0	0	0	0	0	0	-228.66	2893.66	-238.384	0.870347	0	-0.356983	-1.71069	21.6486	-1.78344
